<svg width="30" height="30" viewBox="0 0 30 30" fill="none" xmlns="http://www.w3.org/2000/svg">
<path d="M10.9333 2.49121L2.25 7.50421V11.393L10.9333 6.37969L19.6163 11.393V7.50421L10.9333 2.49121Z" fill="#0084FF"/>
<path d="M19.4655 27.5418L10.7822 22.5288V18.6406L19.4655 23.6536L28.1485 18.6406V22.5288L19.4655 27.5418Z" fill="#0084FF"/>
<path d="M2.25 12.4371L10.9333 7.42383L14.3004 9.36807L5.61745 14.3814V24.408L2.25 22.4638V12.4371Z" fill="#0084FF"/>
<path d="M23.8886 5.01299L15.2053 0L11.8379 1.94424L20.5209 6.95723V16.9839L23.8886 15.0396V5.01299Z" fill="#0084FF"/>
<path d="M6.54004 24.9862L6.54036 14.9599L9.90781 13.0156V23.0423L18.5908 28.0552L15.2233 29.9998L6.54004 24.9862Z" fill="#0084FF"/>
<path d="M28.1491 17.5959V7.56924L24.7816 5.625V15.6513L16.0986 20.6649L19.4661 22.6095L28.1491 17.5959Z" fill="#0084FF"/>
</svg>
